# xmcd
#
# Track frame offsets: 
#        150
#        27684
#        51023
#        71474
#        87924
#        107105
#        126401
#        146372
#        159812
#        171299
#        195559
#        211816
#        234527
#        263480
#        278946
#        295762
#
# Disc length: 4220 seconds
#
# Revision: 4
# Processed by: cddbd v1.5.1PL2 Copyright (c) Steve Scherf et al.
# Submitted via: ExactAudioCopy v0.95a5
#
DISCID=e4107a10
DTITLE=Various Artist - Greatest Hits Of The 70s Volume 4
DYEAR=1996
DGENRE=Rock
TTITLE0=Allman Brothers - Will The Circle Be Unbroken
TTITLE1=Blue Oyster Cult - Don't Fear The Reaper
TTITLE2=BTO - Let It Ride
TTITLE3=David Bowie - Changes
TTITLE4=Eagles - Already Gone
TTITLE5=Emerson, Lake and Palmer - From The Beginning
TTITLE6=Foreigner - Hot Blooded
TTITLE7=Grand Funk Railroad - Bad Time To Be In Love
TTITLE8=Jimi Hendrix - Little Wing
TTITLE9=Kansas - Carry On My Way
TTITLE10=Led Zeppelin - Going To California
TTITLE11=Molly Hatchet - Flirting With Disaster
TTITLE12=Pink Floyd - Comfortably Numb
TTITLE13=Stealer's Wheel - Stuck In The Middle With You
TTITLE14=Ted Nugent - Cat Scratch Fever
TTITLE15=Van Morrison - Moondance
EXTD=YEAR: 1999 ID3G: 17
EXTT0=
EXTT1=
EXTT2=
EXTT3=
EXTT4=
EXTT5=
EXTT6=
EXTT7=
EXTT8=
EXTT9=
EXTT10=
EXTT11=
EXTT12=
EXTT13=
EXTT14=
EXTT15=
PLAYORDER=
